HIERARCHY
ROOT root
{
	OFFSET	0	13.1	24.9
	CHANNELS 6  Xposition Yposition Zposition Xrotation Yrotation Zrotation
	JOINT spine_1
	{
		OFFSET	0	9.99999	0
		CHANNELS 3  Xrotation Yrotation Zrotation
		JOINT spine_2
		{
			OFFSET	0	112	-10
			CHANNELS 3  Xrotation Yrotation Zrotation
			JOINT spine_3
			{
				OFFSET	0	206.5	19.3
				CHANNELS 3  Xrotation Yrotation Zrotation
				JOINT spine_4
				{
					OFFSET	0	110.4	14.6
					CHANNELS 3  Xrotation Yrotation Zrotation
					JOINT neck_1
					{
						OFFSET	0	71.8	-50.3
						CHANNELS 3  Xrotation Yrotation Zrotation
						JOINT neck_2
						{
							OFFSET	0	86.2	-25.8
							CHANNELS 3  Xrotation Yrotation Zrotation
							JOINT head_ee
							{
								OFFSET	0	179.8	-8.7
								CHANNELS 3  Xrotation Yrotation Zrotation
								End Site
								{
									OFFSET	1	0	0
								}
							}
						}
					}
					JOINT left_clavicle
					{
						OFFSET	-43.2	22.4	-70.8
						CHANNELS 3  Xrotation Yrotation Zrotation
						JOINT left_shoulder
						{
							OFFSET	-93.9	-5.79999	48.7
							CHANNELS 3  Xrotation Yrotation Zrotation
							JOINT left_elbow
							{
								OFFSET	-291.4	-30.8	15.2
								CHANNELS 3  Xrotation Yrotation Zrotation
								JOINT left_lowarm_twist
								{
									OFFSET	-110.7	-3.89999	13.6
									CHANNELS 3  Xrotation Yrotation Zrotation
									JOINT left_hand
									{
										OFFSET	-110.7	-3.89999	13.6
										CHANNELS 3  Xrotation Yrotation Zrotation
										JOINT left_ee
										{
											OFFSET	-80.8	-5.10001	12.1
											CHANNELS 3  Xrotation Yrotation Zrotation
											End Site
											{
												OFFSET	1	0	0
											}
										}
									}
								}
							}
						}
					}
					JOINT right_clavicle
					{
						OFFSET	43.2	22.4	-70.8
						CHANNELS 3  Xrotation Yrotation Zrotation
						JOINT right_shoulder
						{
							OFFSET	93.9	-5.79999	48.7
							CHANNELS 3  Xrotation Yrotation Zrotation
							JOINT right_elbow
							{
								OFFSET	291.4	-30.8	15.2
								CHANNELS 3  Xrotation Yrotation Zrotation
								JOINT right_lowarm_twist
								{
									OFFSET	110.7	-3.89999	13.6
									CHANNELS 3  Xrotation Yrotation Zrotation
									JOINT right_hand
									{
										OFFSET	110.7	-3.89999	13.6
										CHANNELS 3  Xrotation Yrotation Zrotation
										JOINT right_ee
										{
											OFFSET	80.8	-5.10001	12.1
											CHANNELS 3  Xrotation Yrotation Zrotation
											End Site
											{
												OFFSET	1	0	0
											}
										}
									}
								}
							}
						}
					}
				}
			}
		}
	}
	JOINT left_hip
	{
		OFFSET	-82.8	-127.5	0.300001
		CHANNELS 3  Xrotation Yrotation Zrotation
		JOINT left_knee
		{
			OFFSET	-28.2	-396.7	2.2
			CHANNELS 3  Xrotation Yrotation Zrotation
			JOINT left_ankle
			{
				OFFSET	-11.7	-411.3	35.4
				CHANNELS 3  Xrotation Yrotation Zrotation
				JOINT left_toes
				{
					OFFSET	0	-60	-88.6
					CHANNELS 3  Xrotation Yrotation Zrotation
					JOINT left_foot_ee
					{
						OFFSET	-22.5	-16.5	-42.2
						CHANNELS 3  Xrotation Yrotation Zrotation
						End Site
						{
							OFFSET	1	0	0
						}
					}
				}
			}
		}
	}
	JOINT right_hip
	{
		OFFSET	82.8	-127.5	0.300001
		CHANNELS 3  Xrotation Yrotation Zrotation
		JOINT right_knee
		{
			OFFSET	28.2	-396.7	2.2
			CHANNELS 3  Xrotation Yrotation Zrotation
			JOINT right_ankle
			{
				OFFSET	11.7	-411.3	35.4
				CHANNELS 3  Xrotation Yrotation Zrotation
				JOINT right_toes
				{
					OFFSET	0	-60	-88.6
					CHANNELS 3  Xrotation Yrotation Zrotation
					JOINT right_foot_ee
					{
						OFFSET	22.5	-16.5	-42.2
						CHANNELS 3  Xrotation Yrotation Zrotation
						End Site
						{
							OFFSET	1	0	0
						}
					}
				}
			}
		}
	}
}
MOTION
Frames: 6
Frame Time: 0.02
2481.55 733.829 -677.406 166.384 -70.638 178.246 -0.117647 -0.629702 -3.41206 -0.111265 -0.41144 -3.44516 -0.0827478 0.326971 -3.45419 -0.0993261 -0.22232 -3.46249 -7.51778 6.18314 1.2945 -7.5212 10.5925 2.58967 -0.0 0.0 -0.0 7.67231 19.158 13.8751 -5.69919 -27.4108 52.9045 1.82684 -42.1399 0.703871 -66.5225 -6.10325 5.25751 -1.09675 14.352 -0.95 -0.0 0.0 -0.0 3.25995 11.0151 -5.48537 -14.7811 7.40595 -66.1215 0.484619 13.4995 -0.0573567 71.7506 2.92401 8.07812 0.815292 -25.0644 -14.6731 0.0 0.0 0.0 6.41647 33.519 -17.1693 0.0282385 -0.00116377 -0.00417719 28.3257 -2.75794 -3.75316 -30.7379 0.0 0.0 -0.0 0.0 -0.0 14.0059 14.9768 -14.4188 -55.3473 1.71907 -7.99327 10.9933 -6.86193 1.55737 -38.7236 0.0 0.0 0.0 0.0 0.0 
2491.88 731.737 -683.171 169.38 -69.7134 -178.618 0.0553093 -0.619038 -3.62995 0.0625555 -0.386959 -3.66193 0.0911228 0.385767 -3.66205 0.072466 -0.197024 -3.67702 -6.83492 6.22596 1.84169 -6.82729 10.2248 3.08867 -0.0 0.0 -0.0 8.22829 19.9289 14.6629 -3.87108 -27.8921 52.6702 1.94198 -43.8858 0.782424 -67.2828 -6.19984 5.2696 -1.50102 16.1165 -2.65167 -0.0 0.0 -0.0 2.95927 11.1681 -4.84569 -15.7661 7.25979 -65.5779 0.451746 12.6141 -0.0499299 72.2924 2.98165 8.11703 0.875927 -24.5958 -14.8823 0.0 0.0 0.0 5.57251 34.6376 -16.0759 1.95618 -0.0854835 -0.287987 28.6075 -1.37007 -3.77081 -30.838 0.0 0.0 -0.0 0.0 -0.0 17.7966 14.2714 -15.4927 -54.9839 1.68338 -7.95011 10.2809 -5.89321 1.46077 -38.9562 0.0 0.0 0.0 0.0 0.0 
2505.65 728.733 -689.458 170.863 -68.631 -177.401 0.128098 -0.541685 -3.83137 0.136214 -0.296974 -3.85802 0.16012 0.510342 -3.83566 0.139609 -0.101364 -3.86809 -6.48328 7.10207 2.73543 -6.46234 11.1684 4.12836 -0.0 0.0 -0.0 8.82173 18.897 15.7299 -1.86193 -27.1154 52.6268 1.98182 -44.467 0.810183 -67.8565 -6.27281 5.27787 -1.87729 18.4803 -3.82818 -0.0 0.0 -0.0 2.89426 12.2959 -4.61214 -16.8934 7.08897 -64.772 0.285814 8.05877 -0.0201334 72.4266 2.99598 8.12658 0.474152 -24.6728 -12.5519 0.0 0.0 0.0 3.0419 34.9782 -14.056 2.70949 -0.121022 -0.3981 30.1238 -3.60433 -3.95786 -29.7059 0.0 0.0 -0.0 0.0 -0.0 20.1968 13.7857 -15.3727 -54.3549 1.62223 -7.87488 9.00962 -6.61755 1.2853 -39.1392 0.0 0.0 0.0 0.0 0.0 
2513.51 729.159 -695.382 171.28 -67.863 -177.366 0.188146 -0.554984 -4.01312 0.197054 -0.298707 -4.04024 0.222235 0.542197 -4.01486 0.199761 -0.0981412 -4.05006 -7.32742 8.99583 5.49918 -7.2612 12.8049 7.33299 -0.0 0.0 -0.0 9.27819 17.9809 16.5936 0.262845 -26.1387 52.9557 1.99888 -44.7124 0.82216 -68.7657 -6.3886 5.28947 -2.12936 21.7601 -3.72285 -0.0 0.0 -0.0 2.62781 12.6956 -4.01756 -17.143 7.19408 -64.3063 0.224289 6.34007 -0.0124221 73.5993 3.12215 8.2086 -0.442447 -24.0304 -7.02238 0.0 0.0 0.0 1.31708 37.5628 -12.2292 5.00865 -0.238417 -0.731212 28.8931 -5.81826 -3.85334 -30.3897 0.0 0.0 -0.0 0.0 -0.0 25.1542 13.8561 -17.2226 -40.5673 0.503251 -6.0775 -4.3216 -12.3204 -0.63971 -40.132 0.0 0.0 0.0 0.0 0.0 
2525.84 730.555 -697.735 172.012 -67.8564 -176.892 0.0764242 -0.572545 -4.21352 0.0862472 -0.303514 -4.24135 0.113527 0.587131 -4.21152 0.0887932 -0.084745 -4.25133 -7.86806 9.62017 6.43123 -7.78194 13.3984 8.43384 -0.0 0.0 -0.0 9.5474 18.2024 17.005 1.71448 -25.7593 53.5326 2.15694 -46.8903 0.935499 -69.4951 -6.4816 5.29744 -2.47278 23.0705 -5.05422 -0.0 0.0 -0.0 2.30969 12.988 -3.32239 -17.5761 7.01777 -64.2651 0.207386 5.86573 -0.010625 74.2227 3.1899 8.25115 -1.09781 -23.2051 -2.91882 0.0 0.0 0.0 0.293447 38.9175 -11.1286 6.15786 -0.302097 -0.89592 27.1532 -7.65029 -3.68652 -30.5385 0.0 0.0 -0.0 0.0 -0.0 26.3443 15.5218 -17.1554 -34.6961 0.164259 -5.24172 -12.1301 -14.3215 -1.82188 -39.6691 0.0 0.0 0.0 0.0 0.0 
2533.28 729.873 -696.761 172.871 -67.2989 -175.891 0.1192 -0.739007 -4.42133 0.129956 -0.456456 -4.45929 0.170928 0.478177 -4.45702 0.143291 -0.230999 -4.4766 -9.58233 10.7124 8.31414 -9.45519 14.4753 10.6899 -0.0 0.0 -0.0 9.30496 17.6311 16.6856 2.90945 -25.0797 53.7729 2.27321 -48.387 1.02142 -70.2593 -6.57912 5.30451 -2.54704 23.7211 -5.14306 -0.0 0.0 -0.0 2.18142 12.1453 -3.13284 -18.6481 8.69646 -63.3451 0.236817 6.69107 -0.0138436 74.8874 3.26265 8.29571 -1.96278 -26.4636 0.474315 0.0 0.0 0.0 -0.0925734 39.846 -10.8843 7.03161 -0.352723 -1.02029 28.6743 -10.4828 -3.90988 -30.4387 0.0 0.0 -0.0 0.0 -0.0 29.6253 21.1063 -18.5849 -28.5866 -0.0956019 -4.34066 -9.42028 -15.4461 -1.41314 -39.6896 0.0 0.0 0.0 0.0 0.0 
